/* XPM */
static char * ET_xpm[] = {
"32 32 6 1",
" 	c None",
".	c #000000",
"+	c #C0C0C0",
"@	c #FFFFFF",
"#	c #FF0000",
"$	c #808080",
"                                ",
"                                ",
"  ............................  ",
"  .+++++++++.@@@@@@.+++++++++.  ",
" ...........@######@........... ",
".@@@@@@@@@@.@##@@##@.@@@@@@@@@@.",
"@##########@@##@@##@@##########@",
".@@@@@@@@######@@######@@@@@@@@.",
" .@###########@..@###########@. ",
"  .@@@@@@@@@@@.@@.@@@@@@@@@@@.  ",
"  ..@#########@##@#########@..  ",
"  .+.@@@@@@@##@##@##@@@@@@@.$.  ",
"  .++......@##@##@##@......$+.  ",
"  .++$$$$$.@##@##@##@.$$$$$++.  ",
"  .+++++++.@##@##@##@.$++++++.  ",
"  .+++++++.@##@##@##@.$++++++.  ",
"  .+++++++.@########@.$++++++.  ",
"  .+++++++.@#####@##@.$++++++.  ",
"  .++++....@##@##@#@.....++++.  ",
"  .++++.@@@@@@@#@@@@@@@@.++++.  ",
"  .++++.@..............@.++++.  ",
"  .++++.@.............@.$++++.  ",
"  .++++.@..@@@@@@@..@@.$+++++.  ",
"  .++++.@..@@@...@..@.$++++++.  ",
"  .++++.@....@.+.@..@.+++++++.  ",
"  .++++.@..@@@.+.@..@.+++++++.  ",
"  .++++.@..@@@@..@..@.+++++++.  ",
"  .++++.@......@.@..@.+++++++.  ",
"  .++++.@.....@..@.@.$+++++++.  ",
"  ......@@@@@@....@...........  ",
"       ........  ..             ",
"                                "};
